<svg width="678" height="289" viewBox="0 0 678 289" fill="none" xmlns="http://www.w3.org/2000/svg">
<path d="M352.091 41.0969L347.78 15.2235L270.368 25.9009L236.692 173.744L52.0067 196.828L16.016 64.1622H0L33 217.274L260.511 201.668L294.131 48.5915L352.091 41.0969" fill="#273A68"/>
<path d="M220.008 270.174C208.908 270.174 199.911 261.177 199.911 250.077C199.911 238.977 208.908 229.978 220.008 229.978C231.109 229.978 240.108 238.977 240.108 250.077C240.108 261.177 231.109 270.174 220.008 270.174ZM220.008 213.27C199.681 213.27 183.203 229.749 183.203 250.077C183.203 270.404 199.681 286.882 220.008 286.882C240.336 286.882 256.816 270.404 256.816 250.077C256.816 229.749 240.336 213.27 220.008 213.27Z" fill="#1B9BDB"/>
<path d="M69.884 274.21C59.3187 274.21 50.7547 265.646 50.7547 255.082C50.7547 244.517 59.3187 235.953 69.884 235.953C80.448 235.953 89.0107 244.517 89.0107 255.082C89.0107 265.646 80.448 274.21 69.884 274.21ZM69.884 223.28C52.32 223.28 38.0814 237.518 38.0814 255.082C38.0814 272.645 52.32 286.882 69.884 286.882C87.4467 286.882 101.684 272.645 101.684 255.082C101.684 237.518 87.4467 223.28 69.884 223.28" fill="#1B9BDB"/>
<path d="M118.224 60.1689C116.864 60.1689 115.54 60.3196 114.261 60.5929C114.197 60.3862 114.139 60.1796 114.073 59.9756C113.852 59.2782 113.641 58.5822 113.372 57.9036C113.091 57.1996 112.761 56.3382 112.156 55.8449C111.664 55.4449 110.991 55.5862 110.777 56.2102C110.644 56.5969 110.627 57.0249 110.659 57.4529C110.031 57.2875 109.356 57.2196 108.777 57.1436C107.576 56.9849 106.353 56.9062 105.143 56.9742C103.059 57.0916 101.059 57.6849 99.656 59.3089C99.316 59.7022 99.0013 60.1222 98.7067 60.5489C98.4853 60.8702 98.3413 61.1649 98.552 61.5276C98.9773 62.2609 100.32 62.5276 101.073 62.6329C103.049 62.9062 105.156 62.3995 106.992 61.6862C107.999 61.2955 108.961 60.7996 109.815 60.1329C110.175 59.8516 110.584 59.5036 110.933 59.1116C111.053 59.6542 111.189 60.1929 111.329 60.7316C111.388 60.9609 111.447 61.1915 111.504 61.4209C104.389 64.1329 99.324 71.0009 99.324 79.0689C99.324 89.5076 107.785 97.9702 118.224 97.9702C128.663 97.9702 137.124 89.5076 137.124 79.0689C137.124 68.6316 128.663 60.1689 118.224 60.1689" fill="#F9A81F"/>
<path d="M68.7027 97.2649C68.7027 97.2649 69.1253 91.8262 71.0653 91.1542C71.0653 91.1542 81.7427 91.8862 85.624 94.5929C89.504 97.2969 94.4187 99.0515 101.5 100.205C108.58 101.356 110.761 101.517 115.535 103.734C120.307 105.953 129.115 107.126 129.115 107.126C129.115 107.126 128.239 112.426 126.923 114.301C126.923 114.301 127.229 150.584 112.013 176.045L109.593 183.152C109.593 183.152 100.529 180.38 93.7467 179.066C86.9627 177.753 80.6613 178.102 74.968 174.845C69.2747 171.586 65.8187 171.542 60.4653 170.412C55.1133 169.281 51.5294 166.416 51.5294 166.416L53.2267 160.861C53.2267 160.861 54.448 117.96 68.7027 97.2649" fill="#1B9BDB"/>
<path d="M190.956 85.2568L192.644 164.233L231.119 166.597L247.32 88.2942L243.269 69.7315L244.956 61.6315L205.131 57.5822L204.119 66.3568L190.956 85.2568" fill="#EC3D80"/>
<path d="M140.668 52.8569C137.675 61.8355 151.299 106.689 153.493 111.245C155.687 115.801 177.624 116.477 179.481 113.101C181.336 109.726 176.781 54.2075 176.613 50.9995C176.444 47.7942 166.993 46.2742 164.968 45.4315C162.944 44.5875 161.931 38.5129 162.268 36.9929C162.607 35.4755 164.799 35.4756 164.293 32.7742C163.787 30.0742 159.736 29.5689 154.505 30.7502C149.275 31.9315 147.924 33.6182 148.093 35.4756C148.261 37.3302 150.287 36.4875 150.793 37.8369C151.299 39.1875 151.975 45.4316 151.468 46.7809C150.961 48.1316 141.849 49.3129 140.668 52.8569" fill="#1B9BDB"/>
<path d="M211.14 48.0035C202.727 43.8675 194.12 23.4209 197.585 20.4915C201.051 17.5635 205.923 20.3689 205.923 20.3689C205.923 20.3689 207.319 9.76353 213.004 9.2902C218.691 8.8182 221.943 14.4622 222.051 15.1889C222.159 15.9155 226.805 5.94089 233.152 7.41422C239.497 8.88489 240.521 15.7889 240.521 15.7889C240.521 15.7889 247.9 6.71019 251.483 10.8195C255.063 14.9302 250.847 22.7969 250.847 22.7969C250.847 22.7969 257.293 23.6969 258.795 27.5582C260.297 31.4209 252.372 35.5689 252.372 35.5689C252.372 35.5689 258.421 35.0422 258.705 39.4555C258.989 43.8702 233.363 58.9289 211.14 48.0035" fill="#AED922"/>
<path d="M198.604 61.9756C197.989 60.4836 197.331 59.0076 196.669 57.5369L196.535 57.2369C196.676 56.8276 196.756 56.3836 196.707 55.8756C196.483 53.5676 195.947 51.2476 195.501 48.9756C195.04 46.6262 194.531 44.2862 193.976 41.9569C192.881 37.3569 191.611 32.7969 190.164 28.2942C189.059 24.8489 188.061 20.5049 185.06 18.1489C184.957 17.1555 184.888 16.1596 184.877 15.1582C184.865 14.0836 185.104 12.6502 184.38 11.7289C183.485 10.5916 182.369 11.6996 181.288 11.7262C179.92 11.7622 178.787 11.5222 177.644 12.4542C177.148 12.8595 176.691 13.4729 176.049 13.6462C175.217 13.8702 174.364 13.2916 173.637 12.9742C172.555 12.4982 171.049 12.2169 170.22 13.3049C169.371 14.4196 170.5 15.5542 171.241 16.3462C172.455 17.6409 173.644 18.7556 174.423 20.3796C174.683 20.9236 174.855 21.4929 175.004 22.0716C174.328 24.0649 174.369 26.2129 174.689 28.2969C175.1 30.9729 175.848 33.6089 176.472 36.2422C178.136 43.2609 180.559 50.0489 182.576 56.9662C182.844 57.8836 183.069 58.8569 183.64 59.6422C184.241 60.4702 185.108 60.8529 186.06 61.0369C186.12 61.4129 186.172 61.7916 186.24 62.1676C186.499 63.5996 186.756 65.0316 187.019 66.4622C187.173 67.3076 187.248 68.5942 188.376 68.6449C188.799 68.6636 189.22 68.4876 189.556 68.2409C190.047 67.8809 190.427 67.1396 191.1 67.1382C192.015 67.1356 192.74 67.9636 193.705 67.7076C194.167 67.5849 194.432 67.2595 194.741 66.9222C195.089 66.5422 195.496 66.3142 195.967 66.1169C196.732 65.7995 197.629 65.5609 198.248 64.9796C199.087 64.1889 199.008 62.9609 198.604 61.9756" fill="#F9A81F"/>
<path d="M89.9573 30.0715C81.5933 26.1835 72.1413 26.2822 63.2453 27.7475C58.7467 28.4889 54.232 29.5742 50.048 31.4662C48.6653 32.0915 47.328 32.8635 46.0187 33.6942C45.6187 33.9142 45.2067 34.1088 44.8147 34.3422C38.3387 38.2088 33.3253 44.2795 30.1387 51.2288C26.8867 58.3248 25.4173 66.3902 26.0253 74.2222C26.368 78.6342 27.4907 82.7475 30.08 86.3248C32.4973 89.6608 36.0933 91.8782 39.9427 93.0062C44.5107 94.3448 49.3973 94.1715 54.0013 93.1088C58.3293 92.1102 62.4147 90.1888 65.7853 87.1862C69.1907 84.1542 71.812 80.2635 74.544 76.6088C77.5067 72.6448 80.4027 68.6102 83.46 64.7222C84.796 63.0235 86.2373 61.3168 87.972 60.0368C89.6587 58.7928 91.5787 58.0182 93.4507 57.1355C97.0413 55.4435 99.9386 52.8942 100.908 48.7928C102.885 40.4248 96.936 33.3155 89.9573 30.0715Z" fill="#EC3D80"/>
<path d="M159.472 12.0782C158.816 6.68355 154.456 2.92488 149.567 1.17688C144.161 -0.756452 137.891 -0.337806 132.948 2.65553C128.181 5.54086 125.288 10.2809 124.423 15.7329C123.948 18.7155 123.923 21.7409 123.641 24.7422C123.405 27.2769 123.225 30.1262 121.913 32.3769C121.649 32.8289 121.337 33.2795 120.992 33.7022L120.908 33.8009L120.749 33.9755C119.831 34.9555 118.815 35.8435 117.703 36.5862C115.621 37.9755 112.992 38.4382 111.041 40.0009C109.289 41.4035 108.745 43.8262 109.845 45.8195C110.928 47.7769 113.431 48.4942 115.459 47.6595C116.58 47.1995 117.392 45.6649 118.612 45.5995C119.835 45.5329 120.976 46.4315 122.169 46.6169C124.853 47.0382 126.084 44.3835 126.496 42.1929C127.013 39.4409 127.948 37.0355 130.064 35.1035C132.324 33.0435 135.292 32.3515 138.2 31.7329C143.711 30.5609 149.071 29.3222 153.523 25.6449C157.429 22.4182 160.097 17.2249 159.472 12.0782" fill="#AED922"/>
<path d="M182.264 151.212C183.657 130.004 161.303 113.238 143.073 126.746C134.552 133.06 130.981 146.402 132.236 156.528C133.059 163.169 136.86 171.085 144.251 172.146C146.173 172.422 148.148 172.044 149.516 170.574C150.875 169.116 151.391 167.005 151.849 165.124C152.773 161.336 153.077 157.325 154.756 153.764C155.145 152.933 155.575 152.13 156.143 151.408C156.459 151.005 157.203 149.932 157.833 150.16C158.336 150.344 158.587 151.414 158.681 151.865C158.836 152.586 158.819 153.372 158.708 154.1C158.224 157.313 156.725 160.302 156.313 163.532C155.863 167.074 157.103 170.522 160.411 172.238C164.001 174.1 168.188 173.128 171.419 171C177.933 166.71 181.76 158.864 182.264 151.212Z" fill="#AED922"/>
<path d="M153.003 275.582C151.693 276.758 150.452 278.372 149.544 278.96C146.313 281.054 141.753 281.728 138.696 278.952C137.283 277.669 135.975 275.51 133.983 275.114C129.621 274.249 130.427 279.645 132.041 281.857C134.915 285.794 139.224 288.337 144.185 288.1C148.975 287.873 153.625 285.296 156.088 281.137C156.976 279.637 158.492 277.296 157.444 275.572C156.148 273.441 154.529 274.214 153.003 275.582" fill="#1B9BDB"/>
<path d="M211.257 254.362C212.565 253.186 213.808 251.573 214.717 250.985C217.948 248.889 222.507 248.216 225.564 250.992C226.977 252.274 228.284 254.433 230.279 254.829C234.637 255.696 233.835 250.3 232.22 248.088C229.345 244.15 225.037 241.606 220.075 241.844C215.285 242.072 210.635 244.649 208.172 248.808C207.284 250.308 205.769 252.649 206.817 254.373C208.113 256.502 209.731 255.729 211.257 254.362" fill="#273A68"/>
<path d="M61.8426 258.18C62.9 257.232 63.9 255.932 64.6346 255.456C67.2386 253.766 70.9173 253.224 73.384 255.462C74.5226 256.497 75.5773 258.238 77.184 258.557C80.7013 259.256 80.0533 254.904 78.7506 253.12C76.4333 249.944 72.9573 247.893 68.9546 248.084C65.0933 248.268 61.3413 250.346 59.356 253.701C58.64 254.91 57.4173 256.798 58.2627 258.189C59.308 259.906 60.6133 259.282 61.8426 258.18" fill="#273A68"/>
<path d="M333.85 182.768C334.13 182.768 334.35 182.858 334.51 183.038C334.69 183.198 334.78 183.418 334.78 183.698V202.838C334.76 203.118 334.66 203.348 334.48 203.528C334.3 203.688 334.08 203.768 333.82 203.768C333.56 203.768 333.34 203.678 333.16 203.498C332.98 203.318 332.89 203.098 332.89 202.838V193.898H320.71V202.838C320.69 203.098 320.59 203.318 320.41 203.498C320.23 203.678 320.01 203.768 319.75 203.768C319.47 203.768 319.24 203.688 319.06 203.528C318.9 203.348 318.82 203.118 318.82 202.838V183.698C318.82 183.418 318.91 183.198 319.09 183.038C319.27 182.858 319.5 182.768 319.78 182.768C320.04 182.768 320.26 182.858 320.44 183.038C320.62 183.218 320.71 183.438 320.71 183.698V192.158H332.89V183.698C332.89 183.438 332.98 183.218 333.16 183.038C333.36 182.858 333.59 182.768 333.85 182.768ZM364.275 202.568C364.315 202.728 364.335 202.848 364.335 202.928C364.335 203.188 364.245 203.398 364.065 203.558C363.885 203.718 363.675 203.798 363.435 203.798C363.235 203.798 363.055 203.748 362.895 203.648C362.755 203.528 362.645 203.378 362.565 203.198L360.315 197.708H350.565L348.345 203.198C348.185 203.598 347.915 203.798 347.535 203.798C347.255 203.798 347.045 203.728 346.905 203.588C346.765 203.448 346.685 203.258 346.665 203.018V202.928C346.665 202.808 346.675 202.718 346.695 202.658L354.615 183.278C354.775 182.878 355.075 182.678 355.515 182.678C355.715 182.678 355.885 182.738 356.025 182.858C356.185 182.958 356.305 183.098 356.385 183.278L364.275 202.568ZM359.595 195.938L355.395 185.678L351.255 195.938H359.595ZM384.252 182.768C385.352 182.768 386.342 183.028 387.222 183.548C388.102 184.048 388.782 184.758 389.262 185.678C389.762 186.578 390.012 187.598 390.012 188.738C390.012 189.878 389.762 190.918 389.262 191.858C388.782 192.798 388.102 193.538 387.222 194.078C386.342 194.618 385.352 194.888 384.252 194.888H378.042V202.868C378.042 203.128 377.952 203.348 377.772 203.528C377.612 203.688 377.402 203.768 377.142 203.768C376.882 203.768 376.662 203.688 376.482 203.528C376.322 203.348 376.242 203.128 376.242 202.868V183.668C376.242 183.408 376.322 183.198 376.482 183.038C376.662 182.858 376.882 182.768 377.142 182.768H384.252ZM384.252 193.148C385.412 193.148 386.352 192.728 387.072 191.888C387.792 191.048 388.152 189.998 388.152 188.738C388.152 187.498 387.792 186.488 387.072 185.708C386.352 184.928 385.412 184.538 384.252 184.538H378.042V193.148H384.252ZM410.326 182.768C411.426 182.768 412.416 183.028 413.296 183.548C414.176 184.048 414.856 184.758 415.336 185.678C415.836 186.578 416.086 187.598 416.086 188.738C416.086 189.878 415.836 190.918 415.336 191.858C414.856 192.798 414.176 193.538 413.296 194.078C412.416 194.618 411.426 194.888 410.326 194.888H404.116V202.868C404.116 203.128 404.026 203.348 403.846 203.528C403.686 203.688 403.476 203.768 403.216 203.768C402.956 203.768 402.736 203.688 402.556 203.528C402.396 203.348 402.316 203.128 402.316 202.868V183.668C402.316 183.408 402.396 183.198 402.556 183.038C402.736 182.858 402.956 182.768 403.216 182.768H410.326ZM410.326 193.148C411.486 193.148 412.426 192.728 413.146 191.888C413.866 191.048 414.226 189.998 414.226 188.738C414.226 187.498 413.866 186.488 413.146 185.708C412.426 184.928 411.486 184.538 410.326 184.538H404.116V193.148H410.326ZM441.8 183.548C441.8 183.688 441.74 183.878 441.62 184.118L434.93 193.328V202.868C434.93 203.128 434.84 203.348 434.66 203.528C434.48 203.688 434.26 203.768 434 203.768C433.74 203.768 433.52 203.688 433.34 203.528C433.18 203.348 433.1 203.128 433.1 202.868V193.358L426.38 184.178C426.22 183.998 426.14 183.788 426.14 183.548C426.14 183.308 426.24 183.098 426.44 182.918C426.64 182.738 426.86 182.648 427.1 182.648C427.42 182.648 427.67 182.788 427.85 183.068L434.06 191.528L440.12 183.068C440.34 182.788 440.6 182.648 440.9 182.648C441.14 182.648 441.35 182.748 441.53 182.948C441.71 183.128 441.8 183.328 441.8 183.548ZM467.224 204.068C465.784 204.068 464.504 203.828 463.384 203.348C462.284 202.868 461.214 202.118 460.174 201.098C459.934 200.898 459.814 200.658 459.814 200.378C459.814 200.138 459.904 199.918 460.084 199.718C460.284 199.518 460.504 199.418 460.744 199.418C460.984 199.418 461.204 199.518 461.404 199.718C462.964 201.438 464.914 202.298 467.254 202.298C468.694 202.298 469.884 201.958 470.824 201.278C471.784 200.598 472.264 199.708 472.264 198.608C472.264 197.748 472.024 197.038 471.544 196.478C471.084 195.898 470.474 195.428 469.714 195.068C468.954 194.708 467.984 194.338 466.804 193.958C465.524 193.578 464.444 193.158 463.564 192.698C462.704 192.238 462.004 191.628 461.464 190.868C460.924 190.088 460.654 189.108 460.654 187.928C460.654 186.868 460.934 185.928 461.494 185.108C462.074 184.288 462.874 183.648 463.894 183.188C464.934 182.708 466.124 182.468 467.464 182.468C468.684 182.468 469.824 182.678 470.884 183.098C471.964 183.498 472.824 184.078 473.464 184.838C473.764 185.178 473.914 185.468 473.914 185.708C473.914 185.928 473.814 186.138 473.614 186.338C473.414 186.518 473.194 186.608 472.954 186.608C472.754 186.608 472.584 186.538 472.444 186.398C471.904 185.758 471.184 185.238 470.284 184.838C469.384 184.438 468.444 184.238 467.464 184.238C466.004 184.238 464.814 184.568 463.894 185.228C462.974 185.868 462.514 186.748 462.514 187.868C462.514 189.028 462.954 189.918 463.834 190.538C464.714 191.158 465.974 191.728 467.614 192.248C469.034 192.668 470.194 193.098 471.094 193.538C471.994 193.978 472.724 194.608 473.284 195.428C473.864 196.228 474.154 197.288 474.154 198.608C474.154 199.628 473.854 200.558 473.254 201.398C472.674 202.218 471.854 202.868 470.794 203.348C469.754 203.828 468.564 204.068 467.224 204.068ZM501.633 182.768C501.913 182.768 502.133 182.858 502.293 183.038C502.473 183.198 502.563 183.418 502.563 183.698V202.838C502.543 203.118 502.443 203.348 502.263 203.528C502.083 203.688 501.863 203.768 501.603 203.768C501.343 203.768 501.123 203.678 500.943 203.498C500.763 203.318 500.673 203.098 500.673 202.838V193.898H488.493V202.838C488.473 203.098 488.373 203.318 488.193 203.498C488.013 203.678 487.793 203.768 487.533 203.768C487.253 203.768 487.023 203.688 486.843 203.528C486.683 203.348 486.603 203.118 486.603 202.838V183.698C486.603 183.418 486.693 183.198 486.873 183.038C487.053 182.858 487.283 182.768 487.563 182.768C487.823 182.768 488.043 182.858 488.223 183.038C488.403 183.218 488.493 183.438 488.493 183.698V192.158H500.673V183.698C500.673 183.438 500.763 183.218 500.943 183.038C501.143 182.858 501.373 182.768 501.633 182.768ZM535.118 193.268C535.118 195.328 534.688 197.178 533.828 198.818C532.968 200.458 531.778 201.748 530.258 202.688C528.738 203.608 527.008 204.068 525.068 204.068C523.128 204.068 521.398 203.608 519.878 202.688C518.358 201.748 517.168 200.458 516.308 198.818C515.448 197.178 515.018 195.328 515.018 193.268C515.018 191.188 515.448 189.328 516.308 187.688C517.168 186.048 518.358 184.768 519.878 183.848C521.398 182.928 523.128 182.468 525.068 182.468C527.008 182.468 528.738 182.928 530.258 183.848C531.778 184.768 532.968 186.048 533.828 187.688C534.688 189.328 535.118 191.188 535.118 193.268ZM533.198 193.268C533.198 191.528 532.848 189.978 532.148 188.618C531.468 187.238 530.508 186.168 529.268 185.408C528.048 184.648 526.648 184.268 525.068 184.268C523.488 184.268 522.078 184.648 520.838 185.408C519.618 186.168 518.658 187.238 517.958 188.618C517.278 189.978 516.938 191.528 516.938 193.268C516.938 195.008 517.278 196.568 517.958 197.948C518.658 199.308 519.618 200.368 520.838 201.128C522.078 201.888 523.488 202.268 525.068 202.268C526.648 202.268 528.048 201.888 529.268 201.128C530.508 200.368 531.468 199.308 532.148 197.948C532.848 196.568 533.198 195.008 533.198 193.268ZM555.58 182.768C556.68 182.768 557.67 183.028 558.55 183.548C559.43 184.048 560.11 184.758 560.59 185.678C561.09 186.578 561.34 187.598 561.34 188.738C561.34 189.878 561.09 190.918 560.59 191.858C560.11 192.798 559.43 193.538 558.55 194.078C557.67 194.618 556.68 194.888 555.58 194.888H549.37V202.868C549.37 203.128 549.28 203.348 549.1 203.528C548.94 203.688 548.73 203.768 548.47 203.768C548.21 203.768 547.99 203.688 547.81 203.528C547.65 203.348 547.57 203.128 547.57 202.868V183.668C547.57 183.408 547.65 183.198 547.81 183.038C547.99 182.858 548.21 182.768 548.47 182.768H555.58ZM555.58 193.148C556.74 193.148 557.68 192.728 558.4 191.888C559.12 191.048 559.48 189.998 559.48 188.738C559.48 187.498 559.12 186.488 558.4 185.708C557.68 184.928 556.74 184.538 555.58 184.538H549.37V193.148H555.58ZM581.654 182.768C582.754 182.768 583.744 183.028 584.624 183.548C585.504 184.048 586.184 184.758 586.664 185.678C587.164 186.578 587.414 187.598 587.414 188.738C587.414 189.878 587.164 190.918 586.664 191.858C586.184 192.798 585.504 193.538 584.624 194.078C583.744 194.618 582.754 194.888 581.654 194.888H575.444V202.868C575.444 203.128 575.354 203.348 575.174 203.528C575.014 203.688 574.804 203.768 574.544 203.768C574.284 203.768 574.064 203.688 573.884 203.528C573.724 203.348 573.644 203.128 573.644 202.868V183.668C573.644 183.408 573.724 183.198 573.884 183.038C574.064 182.858 574.284 182.768 574.544 182.768H581.654ZM581.654 193.148C582.814 193.148 583.754 192.728 584.474 191.888C585.194 191.048 585.554 189.998 585.554 188.738C585.554 187.498 585.194 186.488 584.474 185.708C583.754 184.928 582.814 184.538 581.654 184.538H575.444V193.148H581.654ZM601.608 202.838C601.588 203.098 601.488 203.318 601.308 203.498C601.128 203.678 600.908 203.768 600.648 203.768C600.368 203.768 600.138 203.688 599.958 203.528C599.798 203.348 599.718 203.118 599.718 202.838V183.698C599.718 183.418 599.808 183.198 599.988 183.038C600.168 182.858 600.398 182.768 600.678 182.768C600.938 182.768 601.158 182.858 601.338 183.038C601.518 183.218 601.608 183.438 601.608 183.698V202.838ZM630.782 182.768C631.042 182.768 631.242 182.848 631.382 183.008C631.542 183.168 631.622 183.368 631.622 183.608V202.808C631.622 203.108 631.532 203.348 631.352 203.528C631.172 203.688 630.952 203.768 630.692 203.768C630.552 203.768 630.412 203.738 630.272 203.678C630.152 203.618 630.052 203.548 629.972 203.468L617.102 186.128V202.958C617.102 203.178 617.012 203.368 616.832 203.528C616.672 203.688 616.482 203.768 616.262 203.768C616.022 203.768 615.822 203.688 615.662 203.528C615.502 203.368 615.422 203.178 615.422 202.958V183.668C615.422 183.388 615.502 183.168 615.662 183.008C615.842 182.848 616.052 182.768 616.292 182.768C616.612 182.768 616.852 182.878 617.012 183.098L629.942 200.528V183.608C629.942 183.368 630.022 183.168 630.182 183.008C630.342 182.848 630.542 182.768 630.782 182.768ZM660.781 193.178C661.041 193.178 661.251 193.268 661.411 193.448C661.591 193.608 661.681 193.818 661.681 194.078V201.308C661.681 201.648 661.531 201.918 661.231 202.118C660.331 202.738 659.331 203.218 658.231 203.558C657.131 203.898 656.011 204.068 654.871 204.068C652.831 204.068 650.991 203.598 649.351 202.658C647.711 201.718 646.421 200.428 645.481 198.788C644.541 197.148 644.071 195.308 644.071 193.268C644.071 191.228 644.541 189.388 645.481 187.748C646.421 186.108 647.711 184.818 649.351 183.878C650.991 182.938 652.831 182.468 654.871 182.468C655.931 182.468 656.951 182.598 657.931 182.858C658.931 183.118 659.821 183.488 660.601 183.968C660.881 184.148 661.021 184.398 661.021 184.718C661.021 184.978 660.931 185.198 660.751 185.378C660.591 185.558 660.401 185.648 660.181 185.648C659.981 185.648 659.801 185.598 659.641 185.498C658.141 184.678 656.551 184.268 654.871 184.268C653.171 184.268 651.641 184.658 650.281 185.438C648.941 186.218 647.891 187.298 647.131 188.678C646.371 190.038 645.991 191.568 645.991 193.268C645.991 194.968 646.371 196.508 647.131 197.888C647.891 199.248 648.941 200.318 650.281 201.098C651.641 201.878 653.171 202.268 654.871 202.268C655.731 202.268 656.591 202.148 657.451 201.908C658.331 201.668 659.111 201.338 659.791 200.918V194.978H655.051C654.791 194.978 654.571 194.898 654.391 194.738C654.211 194.558 654.121 194.338 654.121 194.078C654.121 193.818 654.211 193.608 654.391 193.448C654.571 193.268 654.791 193.178 655.051 193.178H660.781Z" fill="#1B9BDB"/>
<path d="M380.36 103C381.08 103 381.68 103.27 382.16 103.81C382.7 104.29 382.97 104.92 382.97 105.7V163.3C382.97 164.08 382.7 164.74 382.16 165.28C381.62 165.76 380.96 166 380.18 166C379.34 166 378.65 165.76 378.11 165.28C377.57 164.74 377.3 164.08 377.3 163.3V113.8L356.15 145.84C355.55 146.62 354.86 146.98 354.08 146.92H353.9C353.18 146.92 352.52 146.56 351.92 145.84L330.77 113.62V163.3C330.77 164.08 330.5 164.74 329.96 165.28C329.48 165.76 328.85 166 328.07 166C327.29 166 326.66 165.76 326.18 165.28C325.7 164.74 325.46 164.08 325.46 163.3V105.7C325.46 104.98 325.7 104.35 326.18 103.81C326.72 103.27 327.38 103 328.16 103C328.58 103 329.03 103.12 329.51 103.36C329.99 103.54 330.35 103.81 330.59 104.17L354.17 139.54L377.93 104.17C378.59 103.27 379.4 102.88 380.36 103ZM446.883 162.4C447.003 162.88 447.063 163.24 447.063 163.48C447.063 164.26 446.793 164.89 446.253 165.37C445.713 165.85 445.083 166.09 444.363 166.09C443.763 166.09 443.223 165.94 442.743 165.64C442.323 165.28 441.993 164.83 441.753 164.29L435.003 147.82H405.753L399.093 164.29C398.613 165.49 397.803 166.09 396.663 166.09C395.823 166.09 395.193 165.88 394.773 165.46C394.353 165.04 394.113 164.47 394.053 163.75V163.48C394.053 163.12 394.083 162.85 394.143 162.67L417.903 104.53C418.383 103.33 419.283 102.73 420.603 102.73C421.203 102.73 421.713 102.91 422.133 103.27C422.613 103.57 422.973 103.99 423.213 104.53L446.883 162.4ZM432.843 142.51L420.243 111.73L407.823 142.51H432.843ZM504.165 161.14C505.065 161.74 505.515 162.49 505.515 163.39C505.515 163.69 505.395 164.08 505.155 164.56C504.915 164.98 504.585 165.31 504.165 165.55C503.745 165.79 503.295 165.91 502.815 165.91C502.215 165.91 501.705 165.79 501.285 165.55C499.605 164.59 498.255 163.03 497.235 160.87C496.215 158.71 495.705 155.26 495.705 150.52C495.705 146.32 494.535 143.38 492.195 141.7C489.855 139.96 487.065 139.09 483.825 139.09H463.845V163.3C463.845 164.08 463.605 164.74 463.125 165.28C462.645 165.76 462.015 166 461.235 166C460.395 166 459.675 165.76 459.075 165.28C458.475 164.74 458.175 164.08 458.175 163.3V105.7C458.175 104.92 458.415 104.29 458.895 103.81C459.435 103.27 460.095 103 460.875 103H485.175C488.595 103 491.655 103.75 494.355 105.25C497.055 106.69 499.155 108.7 500.655 111.28C502.215 113.86 502.995 116.77 502.995 120.01C502.995 123.85 501.975 127.24 499.935 130.18C497.955 133.06 495.345 135.04 492.105 136.12C494.745 137.14 496.905 138.88 498.585 141.34C500.265 143.74 501.135 146.68 501.195 150.16C501.255 153.88 501.495 156.49 501.915 157.99C502.395 159.49 503.145 160.54 504.165 161.14ZM485.445 134.14C487.545 133.96 489.495 133.27 491.295 132.07C493.095 130.87 494.535 129.25 495.615 127.21C496.695 125.17 497.235 122.83 497.235 120.19C497.235 116.77 496.065 113.95 493.725 111.73C491.445 109.45 488.445 108.31 484.725 108.31H463.845V134.14H485.445ZM565.898 161.59C566.318 162.19 566.528 162.82 566.528 163.48C566.528 164.38 566.198 165.1 565.538 165.64C564.938 166.12 564.248 166.36 563.468 166.36C562.688 166.36 562.028 166.03 561.488 165.37L536.378 133.78L524.138 145.3V163.21C524.078 164.05 523.778 164.74 523.238 165.28C522.698 165.76 522.038 166 521.258 166C520.418 166 519.728 165.76 519.188 165.28C518.708 164.74 518.468 164.05 518.468 163.21V105.79C518.468 104.95 518.738 104.29 519.278 103.81C519.818 103.27 520.508 103 521.348 103C522.188 103 522.848 103.27 523.328 103.81C523.868 104.29 524.138 104.95 524.138 105.79V138.46L560.498 104.08C561.038 103.48 561.698 103.18 562.478 103.18C563.198 103.18 563.798 103.45 564.278 103.99C564.818 104.53 565.088 105.13 565.088 105.79C565.088 106.51 564.818 107.14 564.278 107.68L540.698 129.73L565.898 161.59ZM614.93 160.69C615.71 160.69 616.34 160.96 616.82 161.5C617.36 162.04 617.63 162.67 617.63 163.39C617.63 164.17 617.36 164.8 616.82 165.28C616.34 165.76 615.71 166 614.93 166H581.9C581.12 166 580.46 165.76 579.92 165.28C579.44 164.74 579.2 164.08 579.2 163.3V105.7C579.2 104.92 579.44 104.29 579.92 103.81C580.46 103.27 581.12 103 581.9 103H614.93C615.71 103 616.34 103.27 616.82 103.81C617.36 104.29 617.63 104.92 617.63 105.7C617.63 106.48 617.36 107.11 616.82 107.59C616.34 108.07 615.71 108.31 614.93 108.31H584.87V130.9H610.88C611.66 130.9 612.29 131.17 612.77 131.71C613.31 132.19 613.58 132.82 613.58 133.6C613.58 134.38 613.31 135.01 612.77 135.49C612.29 135.97 611.66 136.21 610.88 136.21H584.87V160.69H614.93ZM670.493 103C671.273 103 671.903 103.24 672.383 103.72C672.923 104.2 673.193 104.83 673.193 105.61C673.193 106.39 672.923 107.02 672.383 107.5C671.903 107.92 671.273 108.13 670.493 108.13H651.863V163.3C651.863 164.08 651.593 164.74 651.053 165.28C650.513 165.76 649.853 166 649.073 166C648.233 166 647.543 165.76 647.003 165.28C646.523 164.74 646.283 164.08 646.283 163.3V108.13H627.653C626.873 108.13 626.213 107.89 625.673 107.41C625.193 106.93 624.953 106.3 624.953 105.52C624.953 104.8 625.193 104.2 625.673 103.72C626.213 103.24 626.873 103 627.653 103H670.493Z" fill="#273A68"/>
</svg>
